<svg xmlns="http://www.w3.org/2000/svg" viewBox="0 0 126.308 148.41" fill="#fff"><path d="M123.962 99.037c-.082-.076-.172-.116-.246-.181L100.929 76.46l-5.749-5.648c5.875-12.929 5.905-28.35-1.279-41.82C81.632 6.015 52.957-2.707 29.979 9.555c-.486.257-.944.549-1.418.826-7.41 4.288-13.254 10.305-17.261 17.284-2.663-1.367-4.591-2.553-4.868-2.73.261.17.083.008-.245-.225a3.34 3.34 0 00-.798-.482 2.503 2.503 0 00-.324-.135 2.873 2.873 0 00-.767-.118c-.063-.008-.11-.004-.182-.004a3.273 3.273 0 00-.656.075c-.024.008-.047.008-.071.016a3.133 3.133 0 00-2.374 3.359s-.012.012-.004.016v.008c.008.355.047.735.142 1.138L5.259 46.24l1.284 5.544 1.142 4.892.367 1.572c.751 3.265 3.375 4.062 5.825 1.771l5.469-5.109 1.549-1.454 3.563-3.331 10.954-10.246.707-.66c.083-.079.139-.158.209-.237l.459-.451-.032-.008c.285-.324.53-.695.664-1.13.036-.115.048-.229.071-.34.213-.846.047-1.651-.482-2.331a3.115 3.115 0 00-1.684-1.261s-4.259.296-10.384-.929a33.342 33.342 0 014.947-5.702 33.01 33.01 0 016.749-4.781 32.905 32.905 0 0114.676-3.872c12.131-.312 24.001 6.069 30.094 17.485 7.713 14.462 3.564 32.133-9.033 41.802-.438.332-.877.66-1.327.973l-.521.352c-.11.079-.229.15-.348.225a34.97 34.97 0 01-1.834 1.087c-9.049 4.991-20.302 5.698-30.315.894a33.212 33.212 0 01-3.73-2.118c-.34-.222-.684-.45-1.019-.688a2.486 2.486 0 00-.771-.135 2.38 2.38 0 00-1.209.355l-.455.36-7.239 5.643-.829.644c-.34.411-.546.929-.546 1.506.008.485.158.937.411 1.312a46.577 46.577 0 009.266 5.883c10.437 5.011 21.809 5.82 32.225 3.13.031 0 .063.016.103.016.442-.119.89-.237 1.328-.363a46.922 46.922 0 008.898-3.62 48.852 48.852 0 003.382-2.007c.15-.095.305-.189.455-.289.32-.209.628-.431.944-.644.11-.078.216-.156.325-.232l4.841 4.768 22.066 21.671c.049.05.09.134.14.189 3.776 3.76 10.697 2.926 15.472-1.867 4.792-4.786 5.627-11.721 1.876-15.472z"/></svg>