<svg xmlns="http://www.w3.org/2000/svg" viewBox="0 0 29 36.25" fill="#fff"><style></style><path d="M11 20.5c-5.238 0-9.5-4.262-9.5-9.5S5.762 1.5 11 1.5s9.5 4.262 9.5 9.5-4.262 9.5-9.5 9.5zm0-17c-4.136 0-7.5 3.364-7.5 7.5s3.364 7.5 7.5 7.5 7.5-3.364 7.5-7.5-3.364-7.5-7.5-7.5z"/><path d="M25.914 23.086l-7.32-7.32a2.038 2.038 0 00-.377-.29 8.534 8.534 0 01-2.741 2.741c.081.134.174.262.29.377l7.32 7.32c.391.391.902.586 1.414.586s1.023-.195 1.414-.586a2 2 0 000-2.828zM11 16.5a1 1 0 01-1-1v-9a1 1 0 112 0v9a1 1 0 01-1 1z"/><path d="M15.5 12h-9a1 1 0 110-2h9a1 1 0 110 2z"/></svg>